<?xml version="1.0" standalone="no"?>
<!DOCTYPE svg PUBLIC "-//W3C//DTD SVG 20010904//EN"
 "http://www.w3.org/TR/2001/REC-SVG-20010904/DTD/svg10.dtd">
<svg version="1.0" xmlns="http://www.w3.org/2000/svg"
 width="581.000000pt" height="429.000000pt" viewBox="0 0 581.000000 429.000000"
 preserveAspectRatio="xMidYMid meet">

<g transform="translate(0.000000,429.000000) scale(0.100000,-0.100000)"
fill="#000000" stroke="none">
<path d="M1765 4158 c-2 -7 -26 -83 -54 -168 -50 -156 -183 -572 -291 -905
-32 -99 -84 -261 -115 -360 -31 -99 -74 -232 -95 -295 -21 -63 -67 -203 -101
-310 -33 -107 -110 -346 -170 -530 -59 -184 -156 -483 -214 -665 -59 -181
-128 -396 -154 -477 l-49 -148 2379 0 c1985 0 2379 2 2379 13 0 8 -9 40 -20
73 -12 32 -149 457 -306 944 -157 487 -309 959 -339 1050 -29 91 -83 260 -120
375 -36 116 -82 255 -100 310 -19 55 -46 138 -60 185 -32 105 -168 528 -242
753 l-55 167 -1134 0 c-899 0 -1135 -3 -1139 -12z m1335 -138 l0 -30 454 0
c424 0 455 -1 460 -17 2 -10 25 -85 49 -168 65 -214 216 -727 239 -810 10 -38
36 -126 57 -195 22 -69 64 -213 95 -320 32 -107 72 -244 91 -305 18 -60 45
-153 60 -205 14 -52 37 -129 50 -170 13 -41 49 -163 80 -270 31 -107 79 -268
106 -356 27 -89 49 -164 49 -168 0 -3 -367 -6 -816 -6 l-817 0 5 -100 5 -100
-363 0 -362 0 5 100 6 100 -817 0 c-449 0 -816 3 -816 8 0 4 9 36 20 72 20 64
122 410 221 745 27 94 67 229 89 300 51 169 105 351 146 495 18 63 48 167 67
230 20 63 56 187 82 275 25 88 50 171 55 185 5 14 32 106 60 205 29 99 65 221
80 270 16 50 36 116 45 148 l16 57 454 0 455 0 0 30 0 30 195 0 195 0 0 -30z"/>
<path d="M2730 4010 c0 -19 7 -20 175 -20 168 0 175 1 175 20 0 19 -7 20 -175
20 -168 0 -175 -1 -175 -20z"/>
<path d="M1815 3960 c-8 -13 25 -13 45 0 12 8 9 10 -12 10 -15 0 -30 -4 -33
-10z"/>
<path d="M1870 3949 c-19 -10 -42 -20 -51 -23 -10 -3 -25 -38 -43 -103 -26
-94 -48 -166 -185 -633 -33 -113 -63 -217 -67 -232 l-6 -28 479 0 479 0 13 37
c30 81 132 159 260 197 69 20 227 21 304 1 128 -33 239 -116 266 -198 l13 -37
479 0 c263 0 479 3 479 6 0 7 -99 349 -184 639 -30 99 -65 218 -78 265 -23 80
-26 85 -56 91 -17 3 -43 14 -56 23 -21 13 -57 16 -221 16 -179 0 -195 -1 -195
-17 0 -10 11 -87 24 -171 12 -84 20 -154 17 -156 -3 -1 -82 -2 -176 -2 l-170
1 -20 -34 c-42 -71 -141 -112 -269 -112 -126 -1 -225 39 -269 107 l-22 35
-175 2 -175 2 3 35 c2 19 9 71 17 115 7 44 16 106 20 138 l7 57 -203 -1 c-178
-1 -209 -4 -239 -20z"/>
<path d="M2335 3948 c-2 -13 -11 -70 -20 -128 -8 -58 -18 -122 -21 -142 l-7
-38 617 0 c339 0 616 2 616 5 0 6 -36 239 -45 293 l-6 32 -130 0 -131 0 7 -80
7 -80 -317 0 -318 0 7 80 7 80 -130 0 c-127 0 -131 -1 -136 -22z m589 -257 c7
-11 -14 -20 -31 -13 -7 2 -10 8 -7 13 7 12 31 12 38 0z"/>
<path d="M2618 3900 l-3 -70 288 0 287 0 0 70 0 70 -284 0 -284 0 -4 -70z"/>
<path d="M3940 3960 c20 -13 50 -13 50 0 0 6 -15 10 -32 10 -25 0 -29 -3 -18
-10z"/>
<path d="M2650 3614 c0 -22 39 -60 86 -84 58 -29 205 -40 280 -21 70 18 161
87 141 108 -2 2 -117 4 -256 6 -179 1 -251 -1 -251 -9z"/>
<path d="M2773 3146 c-86 -20 -143 -47 -193 -92 -39 -35 -70 -86 -70 -114 0
-6 134 -10 396 -10 l396 0 -7 28 c-16 67 -103 141 -203 173 -86 27 -234 34
-319 15z"/>
<path d="M1491 2843 c-11 -38 -47 -160 -80 -273 -33 -113 -82 -281 -109 -375
-117 -399 -166 -568 -207 -705 -69 -237 -87 -301 -84 -304 2 -2 19 -11 36 -20
38 -19 63 -62 63 -106 l0 -30 374 0 373 0 22 148 c13 81 44 280 70 442 l47
295 251 3 251 2 26 54 c37 75 95 129 184 174 75 37 77 37 196 37 115 0 124 -2
188 -32 85 -40 160 -110 194 -179 l26 -54 251 -2 252 -3 46 -295 c26 -162 57
-361 69 -443 l22 -147 363 0 363 0 7 37 c9 52 39 89 80 103 19 6 35 14 35 17
0 3 -25 91 -56 197 -31 105 -69 238 -86 296 -16 58 -44 155 -63 215 -18 61
-56 191 -85 290 -29 99 -79 272 -112 385 -33 113 -68 235 -79 273 l-20 67
-484 0 -485 0 0 -25 c0 -57 -69 -145 -150 -192 -79 -46 -138 -58 -280 -57
-145 1 -203 14 -286 67 -77 48 -134 126 -134 182 l0 25 -485 0 -484 0 -20 -67z"/>
<path d="M2507 2904 c-16 -17 31 -112 75 -149 151 -128 443 -137 619 -21 47
32 99 109 99 148 l0 28 -393 0 c-217 0 -396 -3 -400 -6z"/>
<path d="M2792 2154 c-29 -7 -63 -19 -75 -25 -52 -27 -120 -87 -148 -130 -54
-84 -77 -79 336 -79 246 0 365 3 365 10 0 23 -42 91 -77 125 -102 100 -258
138 -401 99z"/>
<path d="M1987 1663 c-20 -126 -48 -307 -63 -403 -14 -96 -28 -187 -31 -202
l-5 -28 239 0 239 0 12 143 c6 78 15 184 18 235 l7 92 498 0 c274 0 500 -3
502 -7 3 -5 8 -53 11 -108 4 -55 11 -147 17 -205 5 -58 9 -115 9 -127 l0 -23
240 0 241 0 -5 33 c-27 160 -38 227 -51 322 -8 61 -29 199 -47 308 l-31 197
-882 0 -882 0 -36 -227z m941 134 c4 -20 -25 -34 -40 -19 -15 15 -1 44 19 40
10 -2 19 -11 21 -21z"/>
<path d="M2458 1472 c-23 -3 -28 -8 -28 -30 0 -15 -7 -108 -15 -207 -8 -99
-15 -186 -15 -192 0 -10 108 -13 506 -13 l506 0 -6 48 c-3 26 -11 124 -17 217
-6 94 -13 171 -14 173 -4 4 -883 8 -917 4z"/>
<path d="M982 1105 c-20 -74 -19 -75 43 -75 49 0 55 2 55 21 0 27 -18 60 -44
81 -32 26 -41 22 -54 -27z"/>
<path d="M4768 1134 c-32 -17 -48 -43 -48 -78 0 -25 2 -26 60 -26 56 0 60 2
59 23 -1 30 -23 90 -35 93 -5 2 -21 -3 -36 -12z"/>
<path d="M2587 993 c-4 -3 -7 -42 -7 -85 l0 -78 325 0 325 0 0 69 c0 38 -3 76
-6 85 -5 14 -43 16 -318 16 -172 0 -316 -3 -319 -7z"/>
</g>
</svg>
