<?xml version="1.0" encoding="UTF-8"?>
<svg version="1.1" viewBox="0 0 2048 1882" width="161" height="148" xmlns="http://www.w3.org/2000/svg">
<path transform="translate(0)" d="m0 0h2048v1882h-2048z" fill="#FDFDFD"/>
<path transform="translate(0)" d="m0 0h2048v1882h-2048zm1568 104-2 5 1 5-25-1-3-6h-6l-3 4-5-2h-20l-13-1h-17l-9 1-8-1-12 2h-4l-10 1h-9l-12-3-6-3h-3l-1 13h-1074l-3 2-7 61-9 73-18 159-17 138-12 101-11 86-9 84-7 66-10 83-13 106-24 204-5 40-9 78-6 48-7 63-11 91-6 52-5 40-8 65-2 15v12l6 1h1778l8-1-1-11-6-48-8-68-4-38-8-57-7-60-5-39-7-67-7-57-5-43-6-45-6-59-7-58-6-56-7-51-5-46-6-45-7-68-8-68-4-41-8-56-8-69-5-40-5-49-8-59-6-52-6-45-6-59-7-56-5-48-6-44-6-60-2-4-2-1h-146v-11l-3-3z" fill="#FCFCFC"/>
<path transform="translate(993,664)" d="m0 0h34l28 2 23 4 25 7 22 8 24 11 22 13 13 9 16 12 13 12 8 7 7 8 9 10 10 13 11 16 12 20 11 23 11 29 5 19 4 20 3 24v8l-3 1-14 1-157 1-51 1-2-1-8-22-6-10-10-9-16-8-13-3h-18l-13 4-11 6-10 8-8 10-5 12-1 12h2v16h-2l-1-3-1 12 4 13 7 12 10 10 12 7 12 4 15 1 17-2 13-5 11-7 9-9 6-10 4-8 1-3-2-1 2-2v-9l3-3 7 1 2 4 4-2 6-2 6 2 1 3 14 1 64 1 112 1 6 2 1 1v12l-3 24-6 26-6 18-9 22-9 19-10 17-12 17-12 16-10 11-7 8-9 9-14 11-16 12-19 12-25 13-20 8-24 8-27 6-26 4-12 1h-18l-25-2-33-6-24-6-21-8-25-12-20-12-17-12-13-11-11-9-17-16-9-10-13-18-12-19-10-18-10-21-7-19-6-25-7-39v-12l1-1 31-1 160-1 20-2 6-2 3-7 2-11h-186l-35-1-3-2 1-10 5-31 7-29 7-21 8-18 11-21 14-22 13-17 11-13 14-15 12-11 14-11 10-7 18-11 31-15 36-12 18-5 22-4z" fill="#FDFDFD"/>
<path transform="translate(1822)" d="m0 0h226v1882l-4-1-4-25-9-75-7-61-8-71-6-48-4-36-7-55-8-71-8-67-5-46-7-53-7-59-9-81-5-42-5-38-3-25-7-58-4-35-8-71-5-46-9-71-9-76-9-79-5-43-5-40-12-100-9-79-4-34-3-30-6-43-11-95-11-100-3-21z" fill="#FDFDFD"/>
<path transform="translate(0)" d="m0 0h225l-1 14-7 57-6 51-9 77-8 61-13 112-5 46-10 83-11 90-8 72-9 77-10 79-12 105-6 52-18 146-8 71-11 96-5 41v11l-4 36-7 48-5 45-5 43-9 73-11 88-9 84-6 52-8 52-2 17-2 3z" fill="#FDFDFD"/>
<path transform="translate(1546,95)" d="m0 0h43l152 1 2 2 2 17 8 74 6 50 5 40 12 105 8 65 8 60 10 92 14 125 11 87 10 84 8 70 11 88 9 77 8 71 6 52 2 8 3 31 9 73 12 107 11 89 3 25 5 46 6 51 8 72 6 45-1 5-6 1-95 1h-1698l-38-1-3-1 1-17 9-75 6-56 14-117 8-64 6-50 6-42 5-46 6-58 10-85 15-131 11-89 12-101 8-72 10-82 13-110 10-89 11-87 6-52 14-121 16-126 4-36 2-4 2-1zm22 9-2 5 1 5-25-1-3-6h-6l-3 4-5-2h-20l-13-1h-17l-9 1-8-1-12 2h-4l-10 1h-9l-12-3-6-3h-3l-1 13h-1074l-3 2-7 61-9 73-18 159-17 138-12 101-11 86-9 84-7 66-10 83-13 106-24 204-5 40-9 78-6 48-7 63-11 91-6 52-5 40-8 65-2 15v12l6 1h1778l8-1-1-11-6-48-8-68-4-38-8-57-7-60-5-39-7-67-7-57-5-43-6-45-6-59-7-58-6-56-7-51-5-46-6-45-7-68-8-68-4-41-8-56-8-69-5-40-5-49-8-59-6-52-6-45-6-59-7-56-5-48-6-44-6-60-2-4-2-1h-146v-11l-3-3z" fill="#050505"/>
<path transform="translate(225)" d="m0 0h1597l5 36 12 109 9 78 7 50 4 42 6 50 11 95 7 57 8 64 7 63 7 62 14 112 5 46 9 79 9 78 3 22 5 42 5 39 9 79 6 53 12 96 6 55 8 67 9 77 4 31 4 36 8 65 9 81 11 92 4 26h-24l-6-57-8-61-6-55-8-63-5-44-6-46-7-67-6-50-5-53-5-43-9-64-7-56-6-55-7-56-5-44-5-36-7-70-8-66-7-60-5-36-6-54-7-55-5-50-8-64-6-52-7-56-5-48-8-64-6-53-5-37-7-59-7-56-6-60-8-60-1-7-1556 1-1 2-5 49-9 80-5 44-11 88-9 75-6 55-6 50-6 52-9 75-10 83-5 46-13 105-8 66-7 62-10 88-10 81-10 82-6 52-10 75-3 20-2 16-3 31-9 87-10 89-5 38-10 85-7 60-9 81-5 39h-25v-7l10-65 6-52 11-101 11-87 8-65 5-45 6-50 6-41 3-28v-11l10-84 13-115 13-106 11-91 6-54 12-102 8-63 11-96 8-70 7-57 11-91 9-82 11-91 6-45 7-61 6-51 8-64z" fill="#050505"/>
<path transform="translate(1006,642)" d="m0 0h17l32 2 26 4 30 9 16 6 21 9 17 8 18 11 16 11 14 11 14 12 16 16 11 14 11 13 14 21 12 21 12 25 9 25 6 23 5 32 3 21 1 3 7 1 156 1 3 1 3-1h159l126 1 3 3 1 7-2 10-1 1-74 1h-79l-120-1-11-1-4-9-1-3-5 6-2 7-139 1-18 1-3 5-6 39-5 24-8 27-10 24-12 22-11 17-8 10-6 7-10 14-7 10-17 16-14 12-13 10-10 7-18 11-16 9-20 9-35 12-28 7-27 4-17 1h-21l-29-2-20-3-28-7-30-10-18-8-14-7-19-12-12-8-18-14-12-11-9-9-7-8-11-13-9-10-9-11-10-15-14-25-10-23-8-24-8-32-4-25-2-20-107-1-44-1-3-9-1-6-3 1-7 14-67 1h-226l-1-10v-12l1-1h299l4 2v-2h74l77-1 3-1 1-2 3-27 5-27 7-25 9-24 7-16 8-15 9-15 11-16 8-10 16-16 8-10 8-11 11-9 13-10 18-13 11-7 22-12 24-11 28-10 25-6 19-3zm-13 22-20 2-27 6-36 12-12 5-25 12-20 12-13 10-13 11-10 9-7 7-7 8-11 13-13 18-13 21-12 23-10 25-6 21-6 29-4 25v5l3 2 35 1h186l-3 13-2 5-6 2-20 2-160 1-31 1-1 1v12l8 44 6 23 8 21 12 24 12 20 11 16 10 13 12 13 14 13 11 9 12 10 21 14 21 12 21 10 19 7 24 6 33 6 25 2h18l26-3 31-6 21-6 24-9 27-13 18-11 14-10 18-14 12-11 7-7 7-8 12-15 13-19 9-14 8-16 9-19 10-27 6-24 3-20 1-10v-12l-2-2-5-1-112-1-64-1-14-1-2-4-7-1-5 3-3 1-2-4-7-1-3 3v9l-2 3h2l-4 9-5 9-9 10-8 6-14 7-9 2-13 1-14-1-14-5-11-7-9-9-8-14-3-11 1-12 1 3 2-1v-15h-2l1-12 5-12 8-10 10-8 16-8 8-2h18l13 3 16 8 10 9 6 10 8 22 2 1 51-1 159-1 12-1 3-1-1-17-4-26-6-25-10-27-12-26-9-16-10-15-12-16-11-13-7-7-5-6-8-7-10-9-19-14-16-10-17-10-24-11-33-11-22-5-23-3-18-1z" fill="#050505"/>
<path transform="translate(967,1407)" d="m0 0h143l361 1 98 1 6 1 2 14 13 101 8 52 5 38 14 110 3 26v5l-1 1h-19l-2-2-7-56-6-42-5-38-6-38-12-90-6-55-1-3h-1062l-2 4-9 77-16 112-11 79-7 46-2 5-8 2-11-1-1-1v-9l7-56 9-71 12-82 13-93 5-34 7-2 205-1z" fill="#050505"/>
<path transform="translate(662,145)" d="m0 0h7l6 5 1 6-3 17-11 53-14 73-11 55-2 18h198l579-1-6-36-18-93-13-65-4-24 1-5 2-1h12l5 3 4 9 17 85 16 87 8 36 2 15v9l-5 3-11 1-121 1h-624l-62-1-6-1v-17l13-65 16-85 14-69 3-8 5-4z" fill="#050505"/>
<path transform="translate(896,1581)" d="m0 0h261l117 1 6 1 3 14 6 37 11 64 9 46v12l-2 1h-12l-7-1-2-2-9-55-7-41-8-47-2-5h-70l-403 1-2 5-9 54-7 37-10 48-2 4-5 2h-17l1-10 9-42 15-86 5-28 3-9z" fill="#050505"/>
<path transform="translate(862,146)" d="m0 0h8l4 2 1 2v8l-8 30-9 34-7 22-1 6 4 1 343-1-7-27-10-34-8-36 1-4 5-3h11l5 5 9 36 12 40 6 23 3 16-1 5-3 2-97 1h-289l-9-2-2-2v-10l6-25 8-27 14-50 3-7 5-4z" fill="#050505"/>
<path transform="translate(425,136)" d="m0 0h13l5 5 2 4 1 24-2 23-4 15-8 16-8 10-8 7-16 8-15 5-25 4h-21l-8-3-2-4v-11l3-3 5-1 34-3 21-5 10-5 6-5 7-10 3-9 3-21 1-13v-10l-1-15z" fill="#050505"/>
<path transform="translate(1609,137)" d="m0 0h12l5 3 1 2v44l4 18 6 11 7 7 10 5 20 6 15 2 27 1 2 4v11l-5 5h-23l-23-2-10-2-16-7-11-6-9-8-8-13-7-18-3-15-1-6v-34l2-5z" fill="#050505"/>
<path transform="translate(1865,1646)" d="m0 0h10l6 2 4 6 1 13-6 2h-29l-19 5-13 6-11 7-6 7-5 13-2 10-1 12-1 39-1 1h-7l-9-3-3-5-2-8v-27l3-18 5-17 7-14 11-12 21-11 19-5 15-2z" fill="#050505"/>
<path transform="translate(168,1647)" d="m0 0h24l18 2 18 5 12 5 11 8 9 10 6 11 6 18 3 17v32l-1 9-6 3h-12l-3-2 1-12v-10l-2-25-4-16-6-12-9-8-12-6-13-4-12-2-32-1-2-4 2-14z" fill="#050505"/>
<path transform="translate(1568,104)" d="m0 0 5 1 1 2v11h146l2 2h-59l-35 1h-92l-121-1-308-1v-1h294l1-13 4 1 7 3 10 2h9l10-1h4l15-2 5 1 10-1h18l15 1h16l6 2 2-4h6l3 6 25 1-1-7z" fill="#AEAEAE"/>
<path transform="translate(1032,914)" d="m0 0 8 1 12 4 8 5 4 5 1 3v8l-3 1v13l-3 11h2l-1 4h3l3-7 5 4v5l-17 3h-24v-58z" fill="#AFAFAF"/>
<path transform="translate(1904,1879)" d="m0 0h75l-1 3h-644l3-2z" fill="#B0B0B0"/>
<path transform="translate(993,913)" d="m0 0 9 2 1 2v15l-3-1-7-11-4-1-2 5-4 4-6 12-1 3v11l2 7 7 6 6 2 3 2 2-4 5-1 4 1 3-3h2v-5l-5-4v-5l4 1v-10l-1-2v-22l5-1 3 7 2 10v34l2 7-8 1-36-1-7-2-2-1 1-7 6 5 6 2-10-8-3-6 1-21 2-1h4l5-12 7-7z" fill="#AEAEAE"/>
<path transform="translate(1104,958)" d="m0 0 2 3 14 1 64 1 112 1v1h-139l-42-1-11-1-1-2z" fill="#B0B0B0"/>
<path transform="translate(1036,939)" d="m0 0h2l3 9 1 5 3 1 1 2v-3l4 2-2 1 1 4-2 1-5-1-6 2-1-2v-19z" fill="#050505"/>
<path transform="translate(995,932)" d="m0 0 3 3 1 6 1 14 1 5 2 1 1-2h4l-2 4-2 1h-6l-3-2 1-4-1-8 1-3-2-12z" fill="#B0B0B0"/>
<path transform="translate(956,936)" d="m0 0h1l1 6h2v16h-2l-1-3-2 11-2-4v-9l2-9z" fill="#aaa"/>
<path transform="translate(1077,944)" d="m0 0 5 1 1 4-3 1-1 4-3-1z" fill="#CDCDCD"/>
</svg>
