<svg xmlns="http://www.w3.org/2000/svg" viewBox="0 0 1333 2048" width="181" height="278"><g xmlns="http://www.w3.org/2000/svg" transform="matrix(0 1 -1 0 1333 -0)"><path transform="translate(0)" d="m0 0h2048v1333h-2048z" fill="#C70361" /><path transform="translate(1289,55)" d="m0 0h99l28 1 479 2 5 1 4 11v2h2l6 10 7 6 17 8 2 4v118l-1 3-192 2h-167l-2 1v255l1 23-13 11-5 5-12 13-13 18-10 16-8 16-8 20-8 27-1 5-1 15v42l2 15 7 26 8 20 4 7 2 5 6 9 4 8 9 11 7 8 11 11 8 7 5 7 3 3 1 2 1 13 1 37v217l-1 13 36 1 219 1h22l84 1 1 11v107l-2 6-11 6-14 10-14 22-3 2-12 1h-844l-8-1-1-114-1-81v-179l1-31 23-3 25-6 22-7 16-6 15-8 16-11 4-3h2v-2l8-7 24-24 13-19 9-16 6-15 9-30 4-20 2-14v-28l-3-21-7-27-8-20-8-17-12-19-8-11-7-9-8-8-11-9-7-6-1-2-7-4v-2l-4-1-12-7-15-7-22-8-22-6-21-4-15-2-1-1v-193l-1-88v-123l217-1z" fill="#5C0324" /><path transform="translate(683,56)" d="m0 0h130l158 1 46 1 1 1 1 37v39l2 37-1 21v201l-2 68-1 1-29 4-24 6-9 2-12 5-18 8-14 9-16 11-12 11-12 13-7 9-16 24-6 10-5 9-3 7-8 24-5 22-1 7v29l2 18 4 20 6 22 7 19 5 10v3h2l10 17 2 5 3 1 2 5 3 1 2 5 4 2 4 5v2l4 2 9 10 11 9 11 8 6 3 9 5 19 8 22 8 26 7 10 2 7 3 6 1 1 9v393l-99 1h-747l-20-1-6-11-8-10-9-8-17-8-1-1v-30l1-90 1-9 9 1 48 1h304l-1-62v-188l1-34 5-3 12-13 8-9 9-12 11-13 12-21 8-19 7-24 5-27 1-10v-29l-3-21-5-20-6-17-5-12-14-23-14-18-4-5-8-7-7-7-3-4v-2l-3-1-4-5-1-3-2-1v-279l-2 1h-287l-70-1-1 2-1-58v-59l1-12 12-5 10-7 8-10 4-8v-4l-9 9-7 8-8 8-6 3h-4l-1-4v-28h369z" fill="#5C0324" /><path transform="translate(0)" d="m0 0h2048v1333h-2048zm690 47-150 1-394 1-41 1-1 1-1 36v496h-52v161l-1 5 2 1 22 1h29v358l1 99v45l-1 26 1 3 6 1h1823l10-1 1-1v-517l1-15 17 1h19l17-1v-136l-1-27-3-2-16-1-32-1-1-89-1-418-1-23-1-1-11-1-475-2h-588z" fill="#5C0324" /><path transform="translate(1586,227)" d="m0 0 316 1h32l3 1 1 20v192l-1 22-59 1h-64v395l1 8 64 2 58 1 1 46v186l-1 3-92 1h-224l-37-1-2-1v-25l1-18v-178l-1-51v-166l-1-148 1-50 1-90v-148z" fill="#5C0324" /><path transform="translate(112,226)" d="m0 0 26 1 323 1 5 1-1 5 1 21v849l-49 1-75 1-119 1-79-1-31-1-1 3-1-12v-214l1-13 121-1 2-32v-349l-2-23-121-1-1-2v-197z" fill="#5C0324" /><path transform="translate(1824,470)" d="m0 0h108l4 1 1 5 1 83v306h-53l-59-1-2-1-1-284v-38z" fill="#5C0324" /><path transform="translate(112,469)" d="m0 0h21l68 1 23 1 1 42v344l-2 5-1 1-15 1h-96v-392z" fill="#5C0324" /><path transform="translate(1031,556)" d="m0 0 13 1 14 4 15 7 12 7 6 5 8 6 1 3-14-1v7l3 12 2 14v12l4 1 16 12 8 5 4 5h4l4-18h1l1 13v28l-2 15-5 19-3 7-2 1-1-2v-9l1-3-8 3-16 11-14 8-4 5-8 26-8 9-13 5-16 3h-16l-5-1v-2h2l-5-5-12-8-6-5-3-5-4-1-17-1-9-3-10-2v4l-4-2-8-11-8-14-4-5-5-10-3-10 1-3 5 3 3-9 6-11 6-9-2-12-5-23 1-11-5 6-4-1-1-4 6-11 10-13 8-10 7-7 14-11 4-1-7 17h8l5-1 20 5 9 1 10-9 16-8 5-3-1-6-3-3z" fill="#DBD8D9" /><path transform="translate(1029,470)" d="m0 0h15l20 3 21 6 15 6 19 10 14 9 11 9 16 13 8 7 4 5v2l3 1 2 5h2l11 16 12 21 6 12 6 17 2 10 1 1 2 12 4 20v18l-2 17-4 19-10 30-8 18-8 14h-2l-2 5-9 12-9 10-16 16-18 13-13 9-18 10-20 7-14 4-22 5-9 1h-10v-23l2-7 5-7 4-4 6-2h11l15-3 9-2 3-3 7-2 8-3 9-7 8-6 9-3 5-6h2v-2l10-6 2-2 1-5 7-3 5-7 3-5 7-11 1-9 4-3 2-11v-7l4-6v-9l1-13-1-3v-10l-1-4-1-9v-28l-2-8v-7l-3-1-3-7-4-7-1-4h2l-1-5h-2l-3-6-3-2-1-6-3-1-2-4-5-2-9-8-3-4v-3l-4-2-6-4-11-10-14-9v-2l-5-1-4-3-7-1-7-3-8-1-1-1-16-3-9-5-7-6-4-1-1-2z" fill="#7D0531" /><path transform="translate(1008,469)" d="m0 0h8l1 1v42l-1 8-7-2-14-1-7-1-13 3-6 1-21 7-20 11-9 6-3 3-5 2-3 5-5 3-4 6h-2l-2 4-5 9-5 10-5 6-1 5-4 10-3 6-1 10-5 7-3 14-1 10 2 13 2 22 1 1 1 11 3 6v2l3 1v7l4 8 4 4v2h2l2 6 4 6v2l2 1 2 5 4 4v3h2v2h2l2 6 4 2 3 4v2h2l2 4 4 3v2l3 1 5 5 1 3h3v2h2v2l6 2 8 5 12 3 10 4 9 2 10 4h5l5 4 7 1 3-2h7l1 1 1 10v30l-7 2-10-1-13-3-14-2-23-8-18-8-14-8-12-8-10-9-8-7-12-13-7-8-6-8-5-6-3-6-11-19-7-17-6-21-3-22-1-13v-18l2-22 5-26 5-15 8-16 10-19 9-12 10-15 9-9 10-7 10-9 19-12 21-10 30-10 18-4z" fill="#7D0531" /><path transform="translate(1574,515)" d="m0 0h2l1 38 1 211v31l-1 23-4 2-7-8-11-13-7-7-13-17-9-14-8-14v-4h-2l-8-24-5-25-1-10v-37l2-16 7-25 7-18 8-17 10-15 10-13 7-8 3-3 7-8 3-1v-2z" fill="#5C0324" /><path transform="translate(473,510)" d="m0 0 4 5 6 6v2l4 2 3 4v2l4 2 2 4 8 8v3l3 1 15 23 8 16 7 18 1 3 1 12 4 15 2 14v39l-4 26-8 23-10 22-5 8h-2l-2 5-8 11-10 13-11 13-7 8-4 2-1-2-1-9v-297z" fill="#5C0324" /><path transform="translate(1017,473)" d="m0 0h1v52l-1 8-3 2-19 4-10 1-13 2-5 3-8 1v2l-11 6h-2v3l-8 4-7 2-1 3-8 7-7 8-2 1-2 5-3 3-2 5-4 4-1 9-2 13-1 12-3 6h-2l-1 7h-2l-1 13-1 5 1 10v13l-1 2h2l2 10 1 1 3 15 4 9v3l5 2 2 8 2 1 2 4v3l3-1 1 2 4 2 7 8 4 6 3 4v2h3l3 3 9 5 2 3 9 4 1 2 5 1 4 5 9 2 4 2v2l9 2 2 3h5l-1-2 3-1 12 2 5 5 1 3v52l-2 2h-13l-18-4-4-2 9 1 14 3 13-1-1-30-1-10h-8l-4 2-6-2-5-3-8-1-8-4-9-2-15-5-6-1-7-5-6-3v-2h-2v-2h-3l-5-5-6-7-4-3v-3h-2l-5-7-3-3-1-4h-2v-2h-2l-3-5-4-5-2-5-5-7v-5h-2l-7-9-2-6v-6l-3-3-3-6-1-11-1-1-1-14-1-10-2-12 3-20 4-7 2-3 2-13 4-7 3-9 2-5 4-4 4-9 6-10 6-7 5-5h2l2-5 6-3h2l2-4 19-11 12-6 10-4 8-2 14-3 7-1 16 2 6 1 4 2z" fill="#9D0540" /><path transform="translate(1028,473)" d="m0 0h1l1 32 6 1 8 7 9 4 13 2 1 1 12 2 5 2 6 2 8 4v2l5 2 11 8 11 10 5 3 3 2 4 7 9 8 5 2 2 4 3 3 1 4 4 4 1 4h2l1 5h-2l2 2 3 8 3 5 1 3 2 1 3 15v28l1 12 1 2v9l1 8-1 13-1 6-3 4v9l-2 9-3 3h-2v9l-7 11-3 5-6 8-7 3-1 5-3 3-7 4h-2v2l-5 4-4 4-8 3-8 6-10 7-8 3-7 1-1 3-25 5h-10l-6 1-2 4-4 4-3 5-1 5-1 21h-1v-33l1-17 2-2 6-2 5-4 15-1 5-4 8-3h3l1-2 2 1 1-2 9-5 2 1v-2l5-3 8-3h2l1-4 9-4 3-4h3v-2h2l1-4 1-3 4-1v-2h2l1-3 3-2 3-7h2l1-4 1-3 4-4 3-7 2-1 4-14 3-5 2-12 2-5v-6l1-2-2-1 2-6v-14l2-7-2-1-2-11v-2l-3-7-2-10v-7l-4-2-3-6-2-2v-3h-3l-5-9-2-4v-3l-3-1-2-5h-3l-3-5-3-2v-2l-4-2-1-3-4-2-9-7-4-2v-2l-7-1v-2l-3-1v-2l-5-1-3-1v-2l-6-2-11-2-4-2-10-2h-7l-9-3-4-4-2-16z" fill="#9D0540" /><path transform="translate(59,588)" d="m0 0h41l3 2 1 6v90l-1 57h-47v-35l1-72 1-47z" fill="#5C0324" /><path transform="translate(1946,587)" d="m0 0 30 1 10 1v2h3l1 2 1 122v28l-1 1-16 1h-29l-1-3v-120l1-34z" fill="#5C0324" /><path transform="translate(1586,227)" d="m0 0 316 1h32l3 1 1 20v192l-1 22h-8v-1h7l-1-44v-142l-1-41-2-5h-179l-144 1-19 1-1 3-2 1-1 227-1 41-1 18 1 21 1 66v494l115 1h124l110-1v-228l-1-3-98-1-17-2v-1h30l30 1 58 1 1 46v186l-1 3-92 1h-224l-37-1-2-1v-25l1-18v-178l-1-51v-166l-1-148 1-50 1-90v-148z" fill="#890537" /><path transform="translate(106,1282)" d="m0 0h1837l-3 2v2h-1401l-307-1h-21l-91 1-12-2z" fill="#8A0537" /><path transform="translate(1009,638)" d="m0 0 10 1 15 6 17 9 3 4v19l-5 25-2 4-23 3-22 2-9-12-11-19-4-6 2-5 8-11 18-18z" fill="#9D0540" /><path transform="translate(1581,518)" d="m0 0h1l1 13 1 74v214l1 19 1 234v31l115 1h124l110-1v-228l-1-3-98-1-17-2v-1h30l30 1 58 1 1 46v186l-1 3-92 1h-224l-37-1-2-1v-25l1-18v-178l-1-51v-166z" fill="#91053A" /><path transform="translate(1209,701)" d="m0 0 2 1v8l-3 19-12 33-5 9h-2l-2 5-9 12-9 10-16 16-18 13-13 9-9 5-28 6h-7l1-4 6-4 16-6 10-6 10-4 9-5 24-18 7-6 9-13 4-8 8-11 5-10h2l1-4 8-20 5-12 2-5 2-8z" fill="#5D0324" /><path transform="translate(1086,587)" d="m0 0h7l9 3 9 8 6 7 4 6 4 8 3 8 1 6v19l-2 5-5-1-5-6-10-6-13-10-3-1-3-26-3-12v-7z" fill="#7D0431" /><path transform="translate(1014,557)" d="m0 0h15l4 2 3 5 2 4-1 4-12 7-10 5-9 8-12-2-19-4-3 1h-9l3-8 4-2 2-8 5-3 13-5 1-1z" fill="#7F0432" /><path transform="translate(464,234)" d="m0 0h1l1 21v849h-3z" fill="#8C0538" /><path transform="translate(473,510)" d="m0 0 4 5 5 6-4 1-1 2v66l1 23v24l-1 51 1 10v54l-1 22v31h2l2 5h3l-2 4-7 6-2-2-1-9v-297z" fill="#7D0531" /><path transform="translate(1289,55)" d="m0 0h99l28 1 165 1 98 1v1h-632l-18-1v210h-1l-1-88v-123l217-1z" fill="#8F0539" /><path transform="translate(1101,488)" d="m0 0 18 7 14 9 11 9 16 13 8 7 4 5v2l3 1 2 5h2l8 11 2 8 4 7 3 9v7h-3l-6-7-7-10-4-7-5-5-6-10-5-6v-2h-2v-2h-2l-3-5-11-9-10-8-6-5-3-1-3-3-6-4-13-10-1-5z" fill="#5E0324" /><path transform="translate(1244,1274)" d="m0 0h197l74 1h379v1l-12 1h-844v-1l187-1z" fill="#90053A" /><path transform="translate(1945,749)" d="m0 0h52v1l-15 1h-32l-4-1v125l1 14v308l-1 31h-2l-1-131v-333l1-13z" fill="#8B0537" /><path transform="translate(99,751)" d="m0 0h4l1 11v347l1 99v45l-1 28-2-1v-36l-1-109v-275l1-108z" fill="#8C0538" /><path transform="translate(1114,708)" d="m0 0h5l1 13-8 11-9 10-8 8-13 9-5 2h-5l2-14 5-15 6-5 17-10z" fill="#600326" /><path transform="translate(1574,515)" d="m0 0h2l1 38 1 211v31l-1 23-4 2-7-8-2-3 9 1 1-2-1-116v-27l-1-26v-28l1-20-1-26 1-13v-33l-1 2-4-1z" fill="#7D0531" /><path transform="translate(930,625)" d="m0 0h1l3 16 5 23-1 4-9 15-4 10h-6l-3-4-1-8-1-1-1-11v-10l3-15 4-8 3-7 6-3z" fill="#640328" /><path transform="translate(1943,57)" d="m0 0 2 4 1 19v148l1 20v129l-1 204 14 1v1h-14l-1-1-1-89z" fill="#8A0537" /><path transform="translate(103,52)" d="m0 0h1v528l-1 3h-7v-2l5-1 1-16-1-72v-86l1-161v-30l-1-7v-82l1-6v-38z" fill="#8E0539" /><path transform="translate(683,56)" d="m0 0h130l158 1 46 1v1h-763v-1z" fill="#8E0539" /><path transform="translate(477,825)" d="m0 0 1 4-1 4-1 27 1 55v110l-1 22-1 9-1 55h-1l-1-62v-188l1-34z" fill="#850534" /><path transform="translate(112,226)" d="m0 0 26 1 323 1 5 1-2 5h-2v-2l-4-1-3-1h-340l-1 20v74l-2 137h-1v-197z" fill="#8A0537" /><path transform="translate(866,767)" d="m0 0 7 3 6 6v2h2l8 10 9 11 3 1v2l4 2 7 6v2l4 2 12 9 17 10 18 8 9 3 6 3-4 1-6-1-9-2-13-2-6-1-5-4v-3l-4-2-9-4-4-3v-2l-4-2-5-4-1-4-4-2-5-3-9-3-8-8-4-5-4-3v-6l-6-8-3-5z" fill="#5C0324" /><path transform="translate(472,228)" d="m0 0h1l1 23 3 39v88l1 65-1 18-2 5-1 6-1 29h-1z" fill="#850535" /><path transform="translate(1142,833)" d="m0 0 1 2-3 6-5 5-6 4-9 3-12 6-10 3-8 2-3 2-12 2-16 4-11 1v2l-12 5-5 3-1 118-1 80h-1v-179l1-31 23-3 25-6 22-7 16-6 15-8z" fill="#890536" /><path transform="translate(1220,613)" d="m0 0 2 1 4 11 2 14 4 18 1 23-2 4 1 8 1 3-3 17-8 23-5 12-2 9-5 7h-2l-2 5-7 12-7 9-8 8-1 2h-2l-2 5-7 9-8 5-5 4-2-1 27-27 13-19 9-16 6-15 9-30 4-20 2-14v-28l-3-21-4-16z" fill="#820533" /><path transform="translate(1572,825)" d="m0 0 3 4 1 13 1 37v217l-1 13 91 2v1h-57l-36-1-2-2v-15l1-13 1-95-1-3v-153z" fill="#94053B" /><path transform="translate(112,219)" d="m0 0 1 2 63-1h210l27-1h37l20 3v1h-287l-70-1-1 2z" fill="#890537" /><path transform="translate(1017,59)" d="m0 0h1l1 37v39l2 37-1 21v201l-2 68h-1z" fill="#840534" /><path transform="translate(1935,96)" d="m0 0 2 1 1 3v118l-1 3-192 2h-165v-1l74-1 124-1h157z" fill="#880536" /><path transform="translate(111,57)" d="m0 0h120v1l-81 1-2 3-1-2-10 10-7 8-8 8-6 3h-4l-1-4z" fill="#5C0324" /><path transform="translate(1e3 871)" d="m0 0 14 1 1 34v185l1 135v46h-2l2 3 2-1 3 3h-107v-1h99l-1-402-10-1z" fill="#9D0640" /><path transform="translate(545,610)" d="m0 0 2 2 4 18 3 20v34l-2 8v7l1 3v7l-2 8-3 9-9 24-7 11-6 11-7 10-4 6-7 9-10 13h-2v2l-7 6-3 3-6 2 4-6 11-11 12-16 11-13 12-21 8-19 7-24 5-27 1-10v-29l-3-21-3-13z" fill="#840534" /><path transform="translate(951,746)" d="m0 0 14 1 3 1 17 1 5 2 4 6 13 9 8 6v2l-3 1h-8l-16-4-12-5-20-12-5-4z" fill="#600325" /><path transform="translate(1933,1282)" d="m0 0h10l-3 2v2h-370l-1-3z" fill="#890536" /><path transform="translate(1582,518)" d="m0 0h2l1 25 1 66v438h-1l-1-209-1-19v-214z" fill="#7D0531" /><path transform="translate(1769,228)" d="m0 0h165l3 1 1 20v192l-1 22h-8v-1h7l-1-44v-142l-1-41-2-5h-163z" fill="#880536" /><path transform="translate(1932,471)" d="m0 0h4l1 5 1 83v306l-7-1v-1h6l-1-77-1-9v-297l-1-7z" fill="#8C0538" /><path transform="translate(112,869)" d="m0 0h110v1l-28 1-75 1-3 1-2 10v134l-1 87h23v1h-23l-1 3-1-12v-214z" fill="#8C0538" /><path transform="translate(1934,1245)" d="m0 0h2l1 2 1 9v13l-2 5-8 2h-25l-1-2 6-9 8-7 9-10z" fill="#5C0324" /><path transform="translate(111,1245)" d="m0 0 16 8 7 6 8 13 1 3-11 1h-20l-3-2v-19l1-9z" fill="#5E0325" /><path transform="translate(1244,1274)" d="m0 0h197l74 1v1l-247 1h-230v-1l187-1z" fill="#870535" /><path transform="translate(112,469)" d="m0 0h21v1h-20l-1 123h2v108l-1 117-1 46h-1v-392z" fill="#91053A" /><path transform="translate(224,477)" d="m0 0h1l1 24 1 137v201l-1 24-1 1h-18v-1l15-1 2-5z" fill="#9D0640" /><path transform="translate(1674,1111)" d="m0 0h179l84 1 1 11v107l-2 3v-44l-1-76-81 1h-121l-40-1-19-1z" fill="#880536" /><path transform="translate(1911,57)" d="m0 0h17l8 4 1 3v16l-1 4-5 3-6-4-13-11-7-12v-2z" fill="#610326" /><path transform="translate(1515,578)" d="m0 0 2 1-8 19-9 30-1 5-1 15v42l2 15 7 26 8 20 4 7 2 5 6 9 1 5-4-5-4-6v-2l-3-1-6-12-4-12-3-5-2-10-3-8-2-11-3-19-1-2-1-12v-19l4-26 3-11 3-5 1-10 2-4 3-3 2-4 2-8z" fill="#880536" /><path transform="translate(1553,535)" d="m0 0v3l-6 8h-2l-2 5-8 11-8 14-8 16-3 11-1 8-3 7-2 13-1 12h-2v17l-1 20 1 13 2 19v7l-2-4-4-21-1-10v-37l2-16 7-25 7-18 8-17 10-15 10-13z" fill="#840534" /><path transform="translate(1086,587)" d="m0 0h7l9 3 9 8 6 7 4 6 4 8 2 6 1 13-3 4h-5l-2-2-1-13-3-9-5-13v-2l-3-1-3-5-4 2-4 1-9-7z" fill="#620326" /><path transform="translate(59,588)" d="m0 0h41l3 2 1 6v90l-1 57h-1l-1-147-2-5-4-1-25 1-10-2-1 100-2 54h-1v-35l1-72 1-47z" fill="#8E0539" /><path transform="translate(106,1282)" d="m0 0h268v1l-113 1-2 1h-48l-91 1-12-2z" fill="#8D0538" /><path transform="translate(50,584)" d="m0 0 2 1v159l-2 5-3-1 2-6-1-2v-14l1-16v-43l-1-39v-34z" fill="#870536" /><path transform="translate(224,513)" d="m0 0h1v344l-2 5-1 1h-10l4-2 6-1 1-6v-276z" fill="#7D0531" /><path transform="translate(203,228)" d="m0 0h258l5 1-2 5h-2v-2l-4-1-3-1h-250z" fill="#94053C" /><path transform="translate(1142,833)" d="m0 0 1 2-3 6-5 5-6 4-9 3-12 6-10 3-8 2-3 2-12 2-11 1v-2l-2-1 25-7 21-7 19-9 12-8z" fill="#800532" /><path transform="translate(1018,135)" d="m0 0h1l2 37-1 21v201l-1 27h-1z" fill="#9D0640" /><path transform="translate(928,493)" d="m0 0 2 1-14 11-8 4-11 9-6 5h-2l-2 4-4 5h-2l-2 4-8 10-6 8-7 11-10 16-7 15-8 28h-1l1-11 6-19 8-16 10-19 9-12 10-15 9-9 10-7 10-9 19-12z" fill="#9D0640" /><path transform="translate(103,52)" d="m0 0h1v215h-1l-1-26v-26l-1-7v-82l1-6v-38z" fill="#94053B" /><path transform="translate(877,792)" d="m0 0 5 4 7 8 6 3 7 2v2l4 2 3 3v2l4 2 5 4 5 5 8 3 4 3 3 5 5 2v2l-9-3-10-6-11-6-9-7-14-12-7-7-7-8z" fill="#830533" /><path transform="translate(1574,515)" d="m0 0h2l1 38 1 211v31l-1 23-4 2-3-5 5-5v-251z" fill="#9D0640" /><path transform="translate(464,892)" d="m0 0h1l1 73v139h-3z" fill="#8A0537" /><path transform="translate(473,510)" d="m0 0 4 5 1 2-4 2v289l2 6 4 2-5 4-2-2-1-9v-297z" fill="#9D0640" /><path transform="translate(196,1104)" d="m0 0h221v1l-75 1-119 1-79-1v-1z" fill="#860535" /><path transform="translate(339,657)" d="m0 0 7 1 7 2 5 5 1 7-7 3-3 1h-8l-6-5-2-3 1-5z" fill="#C50360" /><path transform="translate(923,629)" d="m0 0 2 1-1 6 4 3v13l-2 8-6 5h-2v-3h-2l-1 18h-1l-1-11v-10l3-15 4-8z" fill="#800532" /><path transform="translate(1181,531)" d="m0 0h2l3 5 6 7 4 6v2h2l5 8 5 9v5h2l4 6v9l5 10 1 13-2-4-8-21-9-19-12-19-8-11-2-3z" fill="#7F0532" /><path transform="translate(831,595)" d="m0 0 1 2-6 18-5 22-1 7v29l2 18 4 20 6 22 7 19 1 4-3-3-11-26-4-17-5-38v-23l1-15 4-18 5-14z" fill="#850534" /><path transform="translate(1208,599)" d="m0 0 3 4 4 13 2 7 2 12 4 20v18l-2 17-4 19-6 19-1-4 3-9 4-21v-11l2-19v-12l-5-29-3-8-3-13z" fill="#9D0640" /><path transform="translate(1946,587)" d="m0 0 30 1 10 1v1h-13l-26-1v62l-1 77-1 12h-1v-118l1-34z" fill="#8C0538" /><path transform="translate(539,624)" d="m0 0 2 4 3 16 1 6v39l-4 26-3 9h-1v-15l2-21 3-28v-12l-3-19z" fill="#870536" /><path transform="translate(1935,96)" d="m0 0 2 1 1 3v118l-1 3-4-1h2z" fill="#8B0537" /><path transform="translate(1574,224)" d="m0 0h1l1 255 1 23-2 1-1-10z" fill="#7D0531" /><path transform="translate(1056,462)" d="m0 0 17 2 23 7 14 7 11 8-2 1-13-6-19-7-22-6-21-4v-1z" fill="#840534" /><path transform="translate(1085,588)" d="m0 0h1v5h2l3 17 3 11 3 2 3 7 4 4v2l4-1 1 5 3 1 1 5 5 2 6 5h4l-1 4-5-1-5-6-10-6-13-10-3-1-3-26-3-12z" fill="#A30545" /><path transform="translate(925,845)" d="m0 0 26 10 20 7 22 6 10 2v1l-20-1-18-4-10-4-9-3-14-7-7-5z" fill="#7F0532" /><path transform="translate(999,471)" d="m0 0h12l4 3v10l-8 1-13-2-3-1 1-5 5-5z" fill="#5C0324" /><path transform="translate(1574,990)" d="m0 0h1v117l-1 2 93 2v1h-57l-36-1-2-2v-15l1-13z" fill="#800532" /><path transform="translate(1696,657)" d="m0 0 5 1 7 8v5l-7 5-6-1-7-6v-5l4-5z" fill="#C60360" /><path transform="translate(112,1109)" d="m0 0 9 1 44 1v1h-50l-2 27-1 75v24l5 2-2 1-5-3v-30l1-90z" fill="#8F0539" /><path transform="translate(1934,1112)" d="m0 0h3l1 11v107l-2 3v-44l-1-60z" fill="#8E0539" /><path transform="translate(1934,229)" d="m0 0h3l1 20v192h-1l-1-176-1-29-1-4z" fill="#9D0640" /><path transform="translate(1819,868)" d="m0 0h30l30 1 58 1v38h-1l-1-33-1-3-98-1-17-2z" fill="#890536" /><path transform="translate(380,228)" d="m0 0h81l5 1-2 5h-2v-2l-4-1-3-1h-148v-1z" fill="#7D0531" /><path transform="translate(518,780)" d="m0 0 1 2-4 6-7 9-10 13h-2v2l-7 6-3 3-6 2 4-6 11-11 12-16z" fill="#7D0531" /><path transform="translate(50,584)" d="m0 0 2 1-1 35v51l-2-1-1-42v-34z" fill="#7D0531" /><path transform="translate(1988,591)" d="m0 0 2 2 1 122v28l-1 1h-8l1-2 4-2 1-3z" fill="#820533" /><path transform="translate(963,757)" d="m0 0 5 1 7 4h14l5 3 4 3v2l11 3 6-1v2l-3 1h-8l-16-4-12-5-13-8z" fill="#870536" /><path transform="translate(1497,690)" d="m0 0h1l2 15 7 26 8 20 4 7 2 5 6 9 1 5-4-5-4-6v-2l-3-1-6-12-4-12-3-5-2-10-3-8-2-11z" fill="#860535" /><path transform="translate(102,494)" d="m0 0h2v86l-1 3h-7v-2l5-1 1-16z" fill="#8E0539" /><path transform="translate(1553,535)" d="m0 0v3l-6 8h-2l-2 5-8 11-8 14-8 16-3 11-4 3 1-6 9-21 9-16 14-19z" fill="#870536" /><path transform="translate(1009,638)" d="m0 0 10 1 15 6 14 7-3 2-9-3-12-5-4-3h-12l-2-3z" fill="#C70361" /><path transform="translate(131,57)" d="m0 0h100v1l-81 1-2 3-1-2-7 6-2-4v-4h-7z" fill="#8C0538" /><path transform="translate(1051,664)" d="m0 0 2 1 1 3v9l-5 25-1 2h-2v-10l2-5v-17z" fill="#880438" /><path transform="translate(1e3 871)" d="m0 0 14 1 1 34v24l-1 31h-1l-1-87-10-1z" fill="#860535" /><path transform="translate(781,56)" d="m0 0m-70 0h69l1 2-2 1h-69l-1-2z" fill="#8E0539" /><path transform="translate(831,595)" d="m0 0 1 2-6 18-5 22-1 7-1 24h-1v-34l4-18 5-14z" fill="#95053C" /><path transform="translate(113,94)" d="m0 0 3 1-2 4-1 64-2 3v-59l1-12z" fill="#8B0537" /><path transform="translate(1901,228)" d="m0 0h33l1 4h-3v-2h-103v-1z" fill="#7D0531" /><path transform="translate(112,1109)" d="m0 0 9 1 44 1v1h-50l-2 27h-1z" fill="#830534" /><path transform="translate(106,1282)" d="m0 0 45 1 1 2-14 1h-18l-12-2z" fill="#8B0537" /><path transform="translate(940,852)" d="m0 0 5 1 22 8 26 7 10 2v1l-11-1-14-3-15-5-10-3-13-6z" fill="#9D0640" /><path transform="translate(977,583)" d="m0 0 11 2 1 1 15 1h6l-5 5-16-3-14-4z" fill="#AF044E" /><path transform="translate(1934,1245)" d="m0 0h2l1 2 1 9v13l-2 5-3-1h2v-19l-5-3-6-1 3-3z" fill="#880536" /><path transform="translate(1888,870)" d="m0 0h49v38h-1l-1-33-1-3-46-1z" fill="#9D0640" /><path transform="translate(1515,578)" d="m0 0 2 1-8 19-6 19-2-4 1-2 1-10 2-4 3-3 2-4 2-8z" fill="#840534" /><path transform="translate(509,788)" d="m0 0 1 2-9 14-17 16-2 1 2-4 11-11 12-16z" fill="#9B053F" /><path transform="translate(1509,743)" d="m0 0h3l4 9 5 11 6 9 1 5-4-5-4-6v-2l-3-1-6-12z" fill="#8C0538" /><path transform="translate(998,559)" d="m0 0h17v2l-3 2-22 1 3-3z" fill="#610326" /><path transform="translate(111,57)" d="m0 0h1l1 22 2 3 7 3-4 3-6 1-1-4z" fill="#8D0538" /><path transform="translate(1908,1265)" d="m0 0 1 4 4 5 15 1v1h-25l-1-2z" fill="#8D0538" /><path transform="translate(111,1245)" d="m0 0 7 3-4 2-2 2v23l-3-1v-19l1-9z" fill="#890536" /><path transform="translate(1946,587)" d="m0 0 30 1 10 1v1h-13l-26-1-1 19h-1v-20z" fill="#8F0539" /><path transform="translate(417,228)" d="m0 0h44l5 1-2 5h-2v-2l-4-1-3-1-38-1z" fill="#9D0640" /><path transform="translate(131,57)" d="m0 0h19l-1 5-2-2-7 6-2-4v-4h-7z" fill="#7D0531" /><path transform="translate(1208,729)" d="m0 0h2l-3 10-8 18-2 2 1-5 6-16 2-7z" fill="#860535" /><path transform="translate(831,595)" d="m0 0 1 2-6 18h-2l-1 7-3 12h-1l1-11 7-21z" fill="#830534" /><path transform="translate(1943,1240)" d="m0 0h1l1 14 1 1v14l-1 13-2-1z" fill="#8F0539" /><path transform="translate(1553,535)" d="m0 0v3l-6 8h-2l-2 5-8 11-3 3v-3l10-14 9-11z" fill="#8B0538" /><path transform="translate(1039,472)" d="m0 0h13l2 2-5 1-2 4h-6l-1-4 1-1z" fill="#5C0324" /><path transform="translate(1220,613)" d="m0 0 2 1 4 11 2 14-2 3-4-19z" fill="#870536" /><path transform="translate(1e3 871)" d="m0 0 14 1v23h-1l-1-21-10-1z" fill="#91053A" /><path transform="translate(1541,794)" d="m0 0 7 6 10 10 8 7v3l-5-4-2-3-5-3-7-8-6-6z" fill="#8D0538" /><path transform="translate(951,746)" d="m0 0 14 1v1l-8 1v2l6 4v2l-5-2-7-5z" fill="#870535" /><path transform="translate(1943,57)" d="m0 0 2 4 1 19-1 9h-1l-1-14z" fill="#840534" /><path transform="translate(134,1261)" d="m0 0 4 4 5 10h-10l2-1 1-7z" fill="#8D0538" /><path transform="translate(530,739)" d="m0 0 2 1-9 20-5 8-1-3 8-16z" fill="#870535" /><path transform="translate(1497,690)" d="m0 0h1l2 15 3 13-4-2-2-11z" fill="#8A0537" /><path transform="translate(527,584)" d="m0 0 2 1 9 24v6l-2-4-2-9h-2l-5-16z" fill="#93053B" /><path transform="translate(1934,229)" d="m0 0h3l1 20-1 15h-1l-1-28-1-4z" fill="#9B053F" /><path transform="translate(1212,588)" d="m0 0h2l5 10 1 13-2-4-6-16z" fill="#850534" /><path transform="translate(982,564)" d="m0 0h3l-2 4-3 3-6 1-1-4z" fill="#680329" /><path transform="translate(1049,689)" d="m0 0 2 2-2 11-1 2h-2v-10z" fill="#8A0439" /><path transform="translate(535,584)" d="m0 0h2l4 6 1 1 2 11 1 8-2-4-6-17z" fill="#880536" /><path transform="translate(1178,802)" d="m0 0v3l-6 8-6 4-2-1z" fill="#7D0531" /><path transform="translate(539,624)" d="m0 0 2 4 3 16v6l-2-2-3-19z" fill="#90053A" /><path transform="translate(760,56)" d="m0 0h20l1 2-2 1h-20l-1-2z" fill="#93053B" /><path transform="translate(1574,479)" d="m0 0h2l1 23-2 1-1-10z" fill="#820533" /><path transform="translate(970,749)" d="m0 0h15l5 2 1 3-6-2-15-2z" fill="#B10451" /><path transform="translate(1114,646)" d="m0 0 7 4 3 3h4l-1 4-5-1-5-6-3-2z" fill="#AE044D" /><path transform="translate(1085,588)" d="m0 0h1v5h2l2 13v7h-1l-3-15-1-3z" fill="#B30452" /><path transform="translate(1575,808)" d="m0 0 1 2-5 5-4-2-3-4 9 1z" fill="#820533" /><path transform="translate(726,56)" d="m0 0m-15 0 15 1v1l-5 1h-11l-1-2z" fill="#92053B" /><path transform="translate(1905,1269)" d="m0 0 5 3 1 3-8 1-1-2z" fill="#9D0640" /><path transform="translate(522,774)" d="m0 0v3l-5 5-7 6 2-4 7-9z" fill="#8B0537" /><path transform="translate(1509,720)" d="m0 0h2l4 13-1 4-5-14z" fill="#890536" /><path transform="translate(1517,590)" d="m0 0h2l-3 13-4 3 1-6z" fill="#8A0537" /><path transform="translate(1696,657)" d="m0 0 5 1 4 5-4-2-3-1-5 1-2 3-2-1 5-5z" fill="#9D0640" /><path transform="translate(140,57)" d="m0 0h10l-1 5-2-2-4 3v-5z" fill="#9A053F" /><path transform="translate(999,706)" d="m0 0 6 1v2h8v1l-11 1z" fill="#C80362" /><path transform="translate(1501,615)" d="m0 0h1v6l-3 5h-2l2-9z" fill="#7F0532" /><path transform="translate(1934,1245)" d="m0 0h2l1 2v6l-3-3v-2l-3 1-4-2z" fill="#9D0640" /><path transform="translate(1515,578)" d="m0 0 2 1-6 14-1-3 2-8z" fill="#880536" /><path transform="translate(1519,762)" d="m0 0 5 5 4 7-1 3-8-13z" fill="#9D0640" /><path transform="translate(1989,737)" d="m0 0h1v7h-8l1-2 4-2z" fill="#860535" /><path transform="translate(455,229)" d="m0 0h11l-2 5h-2v-2l-4-1z" fill="#860535" /></g></svg>